<?xml version="1.0" encoding="utf-8"?>
<!-- Generator: Adobe Illustrator 22.1.0, SVG Export Plug-In . SVG Version: 6.00 Build 0)  -->
<svg version="1.1" xmlns="http://www.w3.org/2000/svg" xmlns:xlink="http://www.w3.org/1999/xlink" x="0px" y="0px"
	 viewBox="0 0 500 800" style="enable-background:new 0 0 500 800;" xml:space="preserve">
<style type="text/css">
	.st0{filter:url(#Adobe_OpacityMaskFilter);}
	.st1{stroke:#FFFFFF;stroke-miterlimit:10;}
	.st2{filter:url(#Adobe_OpacityMaskFilter_1_);}
	.st3{fill:#FFFFFF;stroke:#000000;stroke-miterlimit:10;}
	.st4{mask:url(#SVGID_1_);stroke:#FFFFFF;stroke-miterlimit:10;}
	.st5{fill:url(#SVGID_2_);stroke:#FFFFFF;stroke-miterlimit:10;}
</style>
<g id="Capa_1">
	<defs>
		<filter id="Adobe_OpacityMaskFilter" filterUnits="userSpaceOnUse" x="-0.5" y="17.2" width="501" height="653.8">
			
				<feColorMatrix  type="matrix" values="-1 0 0 0 1  0 -1 0 0 1  0 0 -1 0 1  0 0 0 1 0" color-interpolation-filters="sRGB" result="source"/>
		</filter>
	</defs>
	<mask maskUnits="userSpaceOnUse" x="-0.5" y="17.2" width="501" height="653.8" id="SVGID_1_">
		<g class="st0">
			<g>
				<polygon class="st1" points="225.7,262.2 159.3,277.1 113.1,227 133.5,162.1 199.9,147.2 246,197.2 				"/>
				<defs>
					<filter id="Adobe_OpacityMaskFilter_1_" filterUnits="userSpaceOnUse" x="366.2" y="55.1" width="215.1" height="210.4">
						
							<feColorMatrix  type="matrix" values="-1 0 0 0 1  0 -1 0 0 1  0 0 -1 0 1  0 0 0 1 0" color-interpolation-filters="sRGB" result="source"/>
						<feFlood  style="flood-color:white;flood-opacity:1" result="back"/>
						<feBlend  in="source" in2="back" mode="normal"/>
					</filter>
				</defs>
				<mask maskUnits="userSpaceOnUse" x="366.2" y="55.1" width="215.1" height="210.4" id="SVGID_1_">
					<g class="st2">
						<rect x="499" y="10.1" class="st3" width="137" height="274.8"/>
					</g>
				</mask>
				<polygon class="st4" points="548.1,241 441.1,265 366.8,184.3 399.5,79.7 506.5,55.7 580.8,136.3 				"/>
				<polygon class="st1" points="117.7,334.7 65.9,346.3 30,307.3 45.8,256.6 97.6,245 133.5,284.1 				"/>
				<polygon class="st1" points="267.4,563.8 202.3,578.4 157.1,529.4 177,465.7 242.1,451.1 287.3,500.2 				"/>
				<polygon class="st1" points="434,508.1 337.6,529.7 270.6,457 300.1,362.7 396.6,341.1 463.5,413.8 				"/>
				<polygon class="st1" points="237.4,427.9 164.6,444.2 114.1,389.4 136.4,318.2 209.1,301.9 259.7,356.7 				"/>
				<polygon class="st1" points="374.5,331.4 295.3,349.2 240.2,289.4 264.5,211.9 343.8,194.1 398.8,253.9 				"/>
				<polygon class="st1" points="335.9,159.2 257.8,176.7 203.5,117.8 227.4,41.3 305.6,23.8 359.9,82.7 				"/>
				<polygon class="st1" points="100.1,404 69,411 47.5,387.6 57,357.2 88,350.3 109.6,373.6 				"/>
				<polygon class="st1" points="98.5,233 62.3,241.1 37.1,213.8 48.2,178.3 84.5,170.2 109.6,197.5 				"/>
			</g>
		</g>
	</mask>
	<linearGradient id="SVGID_2_" gradientUnits="userSpaceOnUse" x1="0" y1="344.0968" x2="500" y2="344.0968">
		<stop  offset="0" style="stop-color:#FFFFFF"/>
		<stop  offset="0.1918" style="stop-color:#D5D7DB"/>
		<stop  offset="0.5928" style="stop-color:#807F84"/>
		<stop  offset="0.8706" style="stop-color:#454343"/>
		<stop  offset="1" style="stop-color:#000000"/>
	</linearGradient>
	<rect y="17.7" class="st5" width="500" height="652.8"/>
</g>
<g id="Capa_2">
</g>
</svg>
