<?xml version="1.0" encoding="utf-8"?>
<!-- Generator: Adobe Illustrator 22.1.0, SVG Export Plug-In . SVG Version: 6.00 Build 0)  -->
<svg version="1.1" id="Capa_1" xmlns="http://www.w3.org/2000/svg" xmlns:xlink="http://www.w3.org/1999/xlink" x="0px" y="0px"
	 viewBox="0 0 500 800" style="enable-background:new 0 0 500 800;" xml:space="preserve">
<polygon points="225.7,262.2 159.3,277.1 113.1,227 133.5,162.1 199.9,147.2 246,197.2 "/>
<polygon points="548.1,241 441.1,265 366.8,184.3 399.5,79.7 506.5,55.7 580.8,136.3 "/>
<polygon points="117.7,334.7 65.9,346.3 30,307.3 45.8,256.6 97.6,245 133.5,284.1 "/>
<polygon points="267.4,563.8 202.3,578.4 157.1,529.4 177,465.7 242.1,451.1 287.3,500.2 "/>
<polygon points="434,508.1 337.6,529.7 270.6,457 300.1,362.7 396.6,341.1 463.5,413.8 "/>
<polygon points="237.4,427.9 164.6,444.2 114.1,389.4 136.4,318.2 209.1,301.9 259.7,356.7 "/>
<polygon points="374.5,331.4 295.3,349.2 240.2,289.4 264.5,211.9 343.8,194.1 398.8,253.9 "/>
<polygon points="335.9,159.2 257.8,176.7 203.5,117.8 227.4,41.3 305.6,23.8 359.9,82.7 "/>
<polygon points="100.1,404 69,411 47.5,387.6 57,357.2 88,350.3 109.6,373.6 "/>
<polygon points="98.5,233 62.3,241.1 37.1,213.8 48.2,178.3 84.5,170.2 109.6,197.5 "/>
</svg>
